<?xml version="1.0" encoding="utf-8" standalone="no"?>
<!DOCTYPE svg PUBLIC "-//W3C//DTD SVG 1.1//EN"
  "http://www.w3.org/Graphics/SVG/1.1/DTD/svg11.dtd">
<svg xmlns:xlink="http://www.w3.org/1999/xlink" width="525.543307pt" height="440.503937pt" viewBox="0 0 525.543307 440.503937" xmlns="http://www.w3.org/2000/svg" version="1.1">
 <metadata>
  <rdf:RDF xmlns:dc="http://purl.org/dc/elements/1.1/" xmlns:cc="http://creativecommons.org/ns#" xmlns:rdf="http://www.w3.org/1999/02/22-rdf-syntax-ns#">
   <cc:Work>
    <dc:type rdf:resource="http://purl.org/dc/dcmitype/StillImage"/>
    <dc:date>2026-06-19T22:46:09.274046</dc:date>
    <dc:format>image/svg+xml</dc:format>
    <dc:creator>
     <cc:Agent>
      <dc:title>Matplotlib v3.9.4, https://matplotlib.org/</dc:title>
     </cc:Agent>
    </dc:creator>
   </cc:Work>
  </rdf:RDF>
 </metadata>
 <defs>
  <style type="text/css">*{stroke-linejoin: round; stroke-linecap: butt}</style>
 </defs>
 <g id="figure_1">
  <g id="patch_1">
   <path d="M 0 440.503937 
L 525.543307 440.503937 
L 525.543307 -0 
L 0 -0 
z
" style="fill: #ffffff"/>
  </g>
  <g id="axes_1">
   <g id="patch_2">
    <path d="M 62.929134 105.448819 
L 179.149606 105.448819 
Q 183.401575 105.448819 183.401575 101.19685 
L 183.401575 84.188976 
Q 183.401575 79.937008 179.149606 79.937008 
L 62.929134 79.937008 
Q 58.677165 79.937008 58.677165 84.188976 
L 58.677165 101.19685 
Q 58.677165 105.448819 62.929134 105.448819 
z
" clip-path="url(#p78898533b4)" style="fill: #d9ebf7; stroke: #0072b2; stroke-width: 0.4; stroke-linejoin: miter"/>
   </g>
   <g id="patch_3">
    <path d="M 261.354331 105.448819 
L 377.574803 105.448819 
Q 381.826772 105.448819 381.826772 101.19685 
L 381.826772 84.188976 
Q 381.826772 79.937008 377.574803 79.937008 
L 261.354331 79.937008 
Q 257.102362 79.937008 257.102362 84.188976 
L 257.102362 101.19685 
Q 257.102362 105.448819 261.354331 105.448819 
z
" clip-path="url(#p78898533b4)" style="fill: #d9ebf7; stroke: #0072b2; stroke-width: 0.4; stroke-linejoin: miter"/>
   </g>
   <g id="patch_4">
    <path d="M 121.03937 107.449542 
Q 121.03937 125.29117 121.03937 142.51788 
" clip-path="url(#p78898533b4)" style="fill: none; stroke: #333333; stroke-width: 0.55; stroke-linecap: round"/>
    <path d="M 122.43937 139.71788 
L 121.03937 142.51788 
L 119.63937 139.71788 
" clip-path="url(#p78898533b4)" style="fill: none; stroke: #333333; stroke-width: 0.55; stroke-linecap: round"/>
   </g>
   <g id="patch_5">
    <path d="M 319.464567 107.449542 
Q 319.464567 125.29117 319.464567 142.51788 
" clip-path="url(#p78898533b4)" style="fill: none; stroke: #333333; stroke-width: 0.55; stroke-linecap: round"/>
    <path d="M 320.864567 139.71788 
L 319.464567 142.51788 
L 318.064567 139.71788 
" clip-path="url(#p78898533b4)" style="fill: none; stroke: #333333; stroke-width: 0.55; stroke-linecap: round"/>
   </g>
   <g id="patch_6">
    <path d="M 62.929134 170.645669 
L 179.149606 170.645669 
Q 183.401575 170.645669 183.401575 166.393701 
L 183.401575 149.385827 
Q 183.401575 145.133858 179.149606 145.133858 
L 62.929134 145.133858 
Q 58.677165 145.133858 58.677165 149.385827 
L 58.677165 166.393701 
Q 58.677165 170.645669 62.929134 170.645669 
z
" clip-path="url(#p78898533b4)" style="fill: #d1efe7; stroke: #009e73; stroke-width: 0.4; stroke-linejoin: miter"/>
   </g>
   <g id="patch_7">
    <path d="M 261.354331 170.645669 
L 377.574803 170.645669 
Q 381.826772 170.645669 381.826772 166.393701 
L 381.826772 149.385827 
Q 381.826772 145.133858 377.574803 145.133858 
L 261.354331 145.133858 
Q 257.102362 145.133858 257.102362 149.385827 
L 257.102362 166.393701 
Q 257.102362 170.645669 261.354331 170.645669 
z
" clip-path="url(#p78898533b4)" style="fill: #d1efe7; stroke: #009e73; stroke-width: 0.4; stroke-linejoin: miter"/>
   </g>
   <g id="patch_8">
    <path d="M 222.248539 157.889764 
Q 227.336515 157.889764 231.809572 157.889764 
" clip-path="url(#p78898533b4)" style="fill: none; stroke: #009e73; stroke-width: 0.55; stroke-linecap: round"/>
    <path d="M 229.009572 156.489764 
L 231.809572 157.889764 
L 229.009572 159.289764 
" clip-path="url(#p78898533b4)" style="fill: none; stroke: #009e73; stroke-width: 0.55; stroke-linecap: round"/>
   </g>
   <g id="patch_9">
    <path d="M 317.980115 171.981676 
Q 291.118894 196.156775 264.714738 219.920516 
" clip-path="url(#p78898533b4)" style="fill: none; stroke: #009e73; stroke-width: 0.55; stroke-linecap: round"/>
    <path d="M 267.732512 219.088026 
L 264.714738 219.920516 
L 265.859411 217.006802 
" clip-path="url(#p78898533b4)" style="fill: none; stroke: #009e73; stroke-width: 0.55; stroke-linecap: round"/>
   </g>
   <g id="patch_10">
    <path d="M 155.055118 248.598425 
L 370.488189 248.598425 
Q 376.15748 248.598425 376.15748 242.929134 
L 376.15748 225.92126 
Q 376.15748 220.251969 370.488189 220.251969 
L 155.055118 220.251969 
Q 149.385827 220.251969 149.385827 225.92126 
L 149.385827 242.929134 
Q 149.385827 248.598425 155.055118 248.598425 
z
" clip-path="url(#p78898533b4)" style="fill: #d1efe7; stroke: #009e73; stroke-width: 0.4; stroke-linejoin: miter"/>
   </g>
   <g id="patch_11">
    <path d="M 121.03937 172.646998 
Q 121.03937 195.448512 121.03937 217.635107 
" clip-path="url(#p78898533b4)" style="fill: none; stroke: #009e73; stroke-width: 0.55; stroke-linecap: round"/>
    <path d="M 122.43937 214.835107 
L 121.03937 217.635107 
L 119.63937 214.835107 
" clip-path="url(#p78898533b4)" style="fill: none; stroke: #009e73; stroke-width: 0.55; stroke-linecap: round"/>
   </g>
   <g id="patch_12">
    <path d="M 262.771654 250.601051 
Q 262.771654 266.314421 262.771654 281.412873 
" clip-path="url(#p78898533b4)" style="fill: none; stroke: #333333; stroke-width: 0.55; stroke-linecap: round"/>
    <path d="M 264.171654 278.612873 
L 262.771654 281.412873 
L 261.371654 278.612873 
" clip-path="url(#p78898533b4)" style="fill: none; stroke: #333333; stroke-width: 0.55; stroke-linecap: round"/>
   </g>
   <g id="patch_13">
    <path d="M 193.322835 309.543307 
L 332.220472 309.543307 
Q 336.472441 309.543307 336.472441 305.291339 
L 336.472441 288.283465 
Q 336.472441 284.031496 332.220472 284.031496 
L 193.322835 284.031496 
Q 189.070866 284.031496 189.070866 288.283465 
L 189.070866 305.291339 
Q 189.070866 309.543307 193.322835 309.543307 
z
" clip-path="url(#p78898533b4)" style="fill: #d1efe7; stroke: #009e73; stroke-width: 0.4; stroke-linejoin: miter"/>
   </g>
   <g id="patch_14">
    <path d="M 261.085032 310.613683 
Q 208.191061 343.865345 146.329091 343.57966 
" clip-path="url(#p78898533b4)" style="fill: none; stroke: #e69f00; stroke-width: 0.55; stroke-linecap: round"/>
    <path d="M 149.122596 344.992576 
L 146.329091 343.57966 
L 149.135526 342.192606 
" clip-path="url(#p78898533b4)" style="fill: none; stroke: #e69f00; stroke-width: 0.55; stroke-linecap: round"/>
   </g>
   <g id="patch_15">
    <path d="M 264.458275 310.613683 
Q 317.352246 343.865345 379.214216 343.57966 
" clip-path="url(#p78898533b4)" style="fill: none; stroke: #cc79a7; stroke-width: 0.55; stroke-linecap: round"/>
    <path d="M 376.407781 342.192606 
L 379.214216 343.57966 
L 376.420711 344.992576 
" clip-path="url(#p78898533b4)" style="fill: none; stroke: #cc79a7; stroke-width: 0.55; stroke-linecap: round"/>
   </g>
   <g id="patch_16">
    <path d="M 85.606299 369.070866 
L 201.826772 369.070866 
Q 206.07874 369.070866 206.07874 364.818898 
L 206.07874 347.811024 
Q 206.07874 343.559055 201.826772 343.559055 
L 85.606299 343.559055 
Q 81.354331 343.559055 81.354331 347.811024 
L 81.354331 364.818898 
Q 81.354331 369.070866 85.606299 369.070866 
z
" clip-path="url(#p78898533b4)" style="fill: #fff0cc; stroke: #e69f00; stroke-width: 0.4; stroke-linejoin: miter"/>
   </g>
   <g id="patch_17">
    <path d="M 323.716535 369.070866 
L 439.937008 369.070866 
Q 444.188976 369.070866 444.188976 364.818898 
L 444.188976 347.811024 
Q 444.188976 343.559055 439.937008 343.559055 
L 323.716535 343.559055 
Q 319.464567 343.559055 319.464567 347.811024 
L 319.464567 364.818898 
Q 319.464567 369.070866 323.716535 369.070866 
z
" clip-path="url(#p78898533b4)" style="fill: #f5e3ee; stroke: #cc79a7; stroke-width: 0.4; stroke-linejoin: miter"/>
   </g>
   <g id="text_1">
    <text style="fill: #333333; font: 6.2px 'DejaVu Sans'; text-anchor: middle" x="121.03937" y="89.868293" transform="rotate(-0 121.03937 89.868293)">Scalar  sᵢ ∈ ℝ²⁴</text>
   </g>
   <g id="text_2">
    <text style="fill: #333333; font: 6.2px 'DejaVu Sans'; text-anchor: middle" x="121.03937" y="98.939159" transform="rotate(-0 121.03937 98.939159)">Vector  Vᵢ ∈ ℝ¹ˣ³</text>
   </g>
   <g id="text_3">
    <text style="fill: #333333; font: 6.2px 'DejaVu Sans'; text-anchor: middle" x="319.464567" y="89.868293" transform="rotate(-0 319.464567 89.868293)">Edge scalar  eᵢⱼ ∈ ℝ²⁴</text>
   </g>
   <g id="text_4">
    <text style="fill: #333333; font: 6.2px 'DejaVu Sans'; text-anchor: middle" x="319.464567" y="98.939159" transform="rotate(-0 319.464567 98.939159)">Edge vector  eᵢⱼ ∈ ℝ¹ˣ³</text>
   </g>
   <g id="text_5">
    <text style="fill: #333333; font: 6.2px 'DejaVu Sans'; text-anchor: middle" x="121.03937" y="155.065143" transform="rotate(-0 121.03937 155.065143)">Node embed layer</text>
   </g>
   <g id="text_6">
    <text style="fill: #333333; font: 6.2px 'DejaVu Sans'; text-anchor: middle" x="121.03937" y="164.136009" transform="rotate(-0 121.03937 164.136009)">hₛ ∈ ℝ⁶⁴,  hᵥ ∈ ℝ⁸ˣ³</text>
   </g>
   <g id="text_7">
    <text style="fill: #333333; font: 6.5px 'DejaVu Sans'; text-anchor: middle" x="319.464567" y="159.683358" transform="rotate(-0 319.464567 159.683358)">Edge embed layer</text>
   </g>
   <g id="text_8">
    <text style="fill: #333333; font: 700 7px 'DejaVu Sans'; text-anchor: middle" x="262.771654" y="236.329416" transform="rotate(-0 262.771654 236.329416)">GVP Message Passing  ×4</text>
   </g>
   <g id="patch_18">
    <path d="M 122.373813 221.743341 
Q 126.792378 227.339643 122.753281 232.453395 
" style="fill: none; stroke: #009e73; stroke-width: 0.55; stroke-linecap: round"/>
    <path d="M 125.587429 231.123882 
L 122.753281 232.453395 
L 123.39016 229.388369 
" style="fill: none; stroke: #009e73; stroke-width: 0.55; stroke-linecap: round"/>
   </g>
   <g id="text_9">
    <text style="fill: #009e73; font: 700 7px 'DejaVu Sans'; text-anchor: middle" x="53.007874" y="230.687468" transform="rotate(-0 53.007874 230.687468)">×4</text>
   </g>
   <g id="text_10">
    <text style="fill: #333333; font: 6.5px 'DejaVu Sans'; text-anchor: middle" x="262.771654" y="294.045562" transform="rotate(-0 262.771654 294.045562)">Node embeddings</text>
   </g>
   <g id="text_11">
    <text style="fill: #333333; font: 6.5px 'DejaVu Sans'; text-anchor: middle" x="262.771654" y="303.116428" transform="rotate(-0 262.771654 303.116428)">s ∈ ℝᴺˣ⁶⁴,  V ∈ ℝᴺˣ⁸ˣ³</text>
   </g>
   <g id="text_12">
    <text style="fill: #333333; font: 6.2px 'DejaVu Sans'; text-anchor: middle" x="143.716535" y="353.49034" transform="rotate(-0 143.716535 353.49034)">H head  →  H ∈ ℝᴺˣᴺ</text>
   </g>
   <g id="text_13">
    <text style="fill: #333333; font: 6.2px 'DejaVu Sans'; text-anchor: middle" x="143.716535" y="362.561206" transform="rotate(-0 143.716535 362.561206)">(CTQW communicability)</text>
   </g>
   <g id="text_14">
    <text style="fill: #333333; font: 6.2px 'DejaVu Sans'; text-anchor: middle" x="381.826772" y="353.49034" transform="rotate(-0 381.826772 353.49034)">Score head  →  logits ∈ ℝᴺ</text>
   </g>
   <g id="text_15">
    <text style="fill: #333333; font: 6.2px 'DejaVu Sans'; text-anchor: middle" x="381.826772" y="362.561206" transform="rotate(-0 381.826772 362.561206)">(BCE classification)</text>
   </g>
  </g>
 </g>
 <defs>
  <clipPath id="p78898533b4">
   <rect x="36" y="36" width="453.543307" height="368.503937"/>
  </clipPath>
 </defs>
</svg>
