<?xml version="1.0" encoding="utf-8" standalone="no"?>
<!DOCTYPE svg PUBLIC "-//W3C//DTD SVG 1.1//EN"
  "http://www.w3.org/Graphics/SVG/1.1/DTD/svg11.dtd">
<svg xmlns:xlink="http://www.w3.org/1999/xlink" width="582.23622pt" height="264.755906pt" viewBox="0 0 582.23622 264.755906" xmlns="http://www.w3.org/2000/svg" version="1.1">
 <metadata>
  <rdf:RDF xmlns:dc="http://purl.org/dc/elements/1.1/" xmlns:cc="http://creativecommons.org/ns#" xmlns:rdf="http://www.w3.org/1999/02/22-rdf-syntax-ns#">
   <cc:Work>
    <dc:type rdf:resource="http://purl.org/dc/dcmitype/StillImage"/>
    <dc:date>2026-06-19T22:46:09.537340</dc:date>
    <dc:format>image/svg+xml</dc:format>
    <dc:creator>
     <cc:Agent>
      <dc:title>Matplotlib v3.9.4, https://matplotlib.org/</dc:title>
     </cc:Agent>
    </dc:creator>
   </cc:Work>
  </rdf:RDF>
 </metadata>
 <defs>
  <style type="text/css">*{stroke-linejoin: round; stroke-linecap: butt}</style>
 </defs>
 <g id="figure_1">
  <g id="patch_1">
   <path d="M 0 264.755906 
L 582.23622 264.755906 
L 582.23622 0 
L 0 0 
z
" style="fill: #ffffff"/>
  </g>
  <g id="axes_1">
   <g id="patch_2">
    <path d="M 67.181102 122.456693 
L 118.204724 122.456693 
Q 122.456693 122.456693 122.456693 118.204724 
L 122.456693 89.858268 
Q 122.456693 85.606299 118.204724 85.606299 
L 67.181102 85.606299 
Q 62.929134 85.606299 62.929134 89.858268 
L 62.929134 118.204724 
Q 62.929134 122.456693 67.181102 122.456693 
z
" clip-path="url(#p461200aa3e)" style="fill: #f9ddd4; stroke: #d55e00; stroke-width: 0.4; stroke-linejoin: miter"/>
   </g>
   <g id="patch_3">
    <path d="M 126.723748 104.031496 
Q 132.378566 104.031496 137.586171 104.031496 
" clip-path="url(#p461200aa3e)" style="fill: none; stroke: #333333; stroke-width: 0.4; stroke-linecap: round"/>
    <path d="M 135.186171 102.831496 
L 137.586171 104.031496 
L 135.186171 105.231496 
" clip-path="url(#p461200aa3e)" style="fill: none; stroke: #333333; stroke-width: 0.4; stroke-linecap: round"/>
   </g>
   <g id="patch_4">
    <path d="M 146.551181 122.456693 
L 197.574803 122.456693 
Q 201.826772 122.456693 201.826772 118.204724 
L 201.826772 89.858268 
Q 201.826772 85.606299 197.574803 85.606299 
L 146.551181 85.606299 
Q 142.299213 85.606299 142.299213 89.858268 
L 142.299213 118.204724 
Q 142.299213 122.456693 146.551181 122.456693 
z
" clip-path="url(#p461200aa3e)" style="fill: #fff0cc; stroke: #e69f00; stroke-width: 0.4; stroke-linejoin: miter"/>
   </g>
   <g id="patch_5">
    <path d="M 206.093827 104.031496 
Q 211.748645 104.031496 216.95625 104.031496 
" clip-path="url(#p461200aa3e)" style="fill: none; stroke: #333333; stroke-width: 0.4; stroke-linecap: round"/>
    <path d="M 214.55625 102.831496 
L 216.95625 104.031496 
L 214.55625 105.231496 
" clip-path="url(#p461200aa3e)" style="fill: none; stroke: #333333; stroke-width: 0.4; stroke-linecap: round"/>
   </g>
   <g id="patch_6">
    <path d="M 225.92126 122.456693 
L 276.944882 122.456693 
Q 281.19685 122.456693 281.19685 118.204724 
L 281.19685 89.858268 
Q 281.19685 85.606299 276.944882 85.606299 
L 225.92126 85.606299 
Q 221.669291 85.606299 221.669291 89.858268 
L 221.669291 118.204724 
Q 221.669291 122.456693 225.92126 122.456693 
z
" clip-path="url(#p461200aa3e)" style="fill: #fff0cc; stroke: #e69f00; stroke-width: 0.4; stroke-linejoin: miter"/>
   </g>
   <g id="patch_7">
    <path d="M 285.463906 104.031496 
Q 291.118724 104.031496 296.326328 104.031496 
" clip-path="url(#p461200aa3e)" style="fill: none; stroke: #333333; stroke-width: 0.4; stroke-linecap: round"/>
    <path d="M 293.926328 102.831496 
L 296.326328 104.031496 
L 293.926328 105.231496 
" clip-path="url(#p461200aa3e)" style="fill: none; stroke: #333333; stroke-width: 0.4; stroke-linecap: round"/>
   </g>
   <g id="patch_8">
    <path d="M 305.291339 122.456693 
L 356.314961 122.456693 
Q 360.566929 122.456693 360.566929 118.204724 
L 360.566929 89.858268 
Q 360.566929 85.606299 356.314961 85.606299 
L 305.291339 85.606299 
Q 301.03937 85.606299 301.03937 89.858268 
L 301.03937 118.204724 
Q 301.03937 122.456693 305.291339 122.456693 
z
" clip-path="url(#p461200aa3e)" style="fill: #fff0cc; stroke: #e69f00; stroke-width: 0.4; stroke-linejoin: miter"/>
   </g>
   <g id="patch_9">
    <path d="M 364.833984 104.031496 
Q 370.488803 104.031496 375.696407 104.031496 
" clip-path="url(#p461200aa3e)" style="fill: none; stroke: #333333; stroke-width: 0.4; stroke-linecap: round"/>
    <path d="M 373.296407 102.831496 
L 375.696407 104.031496 
L 373.296407 105.231496 
" clip-path="url(#p461200aa3e)" style="fill: none; stroke: #333333; stroke-width: 0.4; stroke-linecap: round"/>
   </g>
   <g id="patch_10">
    <path d="M 384.661417 122.456693 
L 435.685039 122.456693 
Q 439.937008 122.456693 439.937008 118.204724 
L 439.937008 89.858268 
Q 439.937008 85.606299 435.685039 85.606299 
L 384.661417 85.606299 
Q 380.409449 85.606299 380.409449 89.858268 
L 380.409449 118.204724 
Q 380.409449 122.456693 384.661417 122.456693 
z
" clip-path="url(#p461200aa3e)" style="fill: #f5e3ee; stroke: #cc79a7; stroke-width: 0.4; stroke-linejoin: miter"/>
   </g>
   <g id="patch_11">
    <path d="M 444.204063 104.031496 
Q 449.858881 104.031496 455.066486 104.031496 
" clip-path="url(#p461200aa3e)" style="fill: none; stroke: #333333; stroke-width: 0.4; stroke-linecap: round"/>
    <path d="M 452.666486 102.831496 
L 455.066486 104.031496 
L 452.666486 105.231496 
" clip-path="url(#p461200aa3e)" style="fill: none; stroke: #333333; stroke-width: 0.4; stroke-linecap: round"/>
   </g>
   <g id="patch_12">
    <path d="M 464.031496 122.456693 
L 515.055118 122.456693 
Q 519.307087 122.456693 519.307087 118.204724 
L 519.307087 89.858268 
Q 519.307087 85.606299 515.055118 85.606299 
L 464.031496 85.606299 
Q 459.779528 85.606299 459.779528 89.858268 
L 459.779528 118.204724 
Q 459.779528 122.456693 464.031496 122.456693 
z
" clip-path="url(#p461200aa3e)" style="fill: #d1efe7; stroke: #009e73; stroke-width: 0.4; stroke-linejoin: miter"/>
   </g>
   <g id="text_1">
    <text style="fill: #333333; font: 700 6.5px 'DejaVu Sans'; text-anchor: middle" x="92.692913" y="98.738476" transform="rotate(-0 92.692913 98.738476)">CTQW v1</text>
   </g>
   <g id="text_2">
    <text style="fill: #333333; font: 5.5px 'DejaVu Sans'; text-anchor: middle" x="92.692913" y="112.635766" transform="rotate(-0 92.692913 112.635766)">Sparse H</text>
   </g>
   <g id="patch_13">
    <path d="M 92.692913 185.669291 
C 96.301346 185.669291 99.762473 184.235646 102.31402 181.684099 
C 104.865567 179.132551 106.299213 175.671425 106.299213 172.062992 
C 106.299213 168.454559 104.865567 164.993433 102.31402 162.441886 
C 99.762473 159.890338 96.301346 158.456693 92.692913 158.456693 
C 89.084481 158.456693 85.623354 159.890338 83.071807 162.441886 
C 80.52026 164.993433 79.086614 168.454559 79.086614 172.062992 
C 79.086614 175.671425 80.52026 179.132551 83.071807 181.684099 
C 85.623354 184.235646 89.084481 185.669291 92.692913 185.669291 
z
" clip-path="url(#p461200aa3e)" style="fill: #f9ddd4; stroke: #d55e00; stroke-width: 0.5; stroke-linejoin: miter"/>
   </g>
   <g id="text_3">
    <text style="fill: #d55e00; font: 700 6.5px 'DejaVu Sans'; text-anchor: middle" x="92.692913" y="173.856586" transform="rotate(-0 92.692913 173.856586)">0.533</text>
   </g>
   <g id="text_4">
    <text style="fill: #333333; font: 700 6.5px 'DejaVu Sans'; text-anchor: middle" x="172.062992" y="98.738476" transform="rotate(-0 172.062992 98.738476)">CTQW v2</text>
   </g>
   <g id="text_5">
    <text style="fill: #333333; font: 5.5px 'DejaVu Sans'; text-anchor: middle" x="172.062992" y="112.635766" transform="rotate(-0 172.062992 112.635766)">Dense H</text>
   </g>
   <g id="patch_14">
    <path d="M 172.062992 185.669291 
C 175.671425 185.669291 179.132551 184.235646 181.684099 181.684099 
C 184.235646 179.132551 185.669291 175.671425 185.669291 172.062992 
C 185.669291 168.454559 184.235646 164.993433 181.684099 162.441886 
C 179.132551 159.890338 175.671425 158.456693 172.062992 158.456693 
C 168.454559 158.456693 164.993433 159.890338 162.441886 162.441886 
C 159.890338 164.993433 158.456693 168.454559 158.456693 172.062992 
C 158.456693 175.671425 159.890338 179.132551 162.441886 181.684099 
C 164.993433 184.235646 168.454559 185.669291 172.062992 185.669291 
z
" clip-path="url(#p461200aa3e)" style="fill: #fff0cc; stroke: #e69f00; stroke-width: 0.5; stroke-linejoin: miter"/>
   </g>
   <g id="text_6">
    <text style="fill: #e69f00; font: 700 6.5px 'DejaVu Sans'; text-anchor: middle" x="172.062992" y="173.856586" transform="rotate(-0 172.062992 173.856586)">0.800</text>
   </g>
   <g id="text_7">
    <text style="fill: #333333; font: 700 6.5px 'DejaVu Sans'; text-anchor: middle" x="251.433071" y="98.738476" transform="rotate(-0 251.433071 98.738476)">CTQW v3</text>
   </g>
   <g id="text_8">
    <text style="fill: #333333; font: 5.5px 'DejaVu Sans'; text-anchor: middle" x="251.433071" y="112.635766" transform="rotate(-0 251.433071 112.635766)">Dense H+ENAQT</text>
   </g>
   <g id="patch_15">
    <path d="M 251.433071 185.669291 
C 255.041504 185.669291 258.50263 184.235646 261.054177 181.684099 
C 263.605725 179.132551 265.03937 175.671425 265.03937 172.062992 
C 265.03937 168.454559 263.605725 164.993433 261.054177 162.441886 
C 258.50263 159.890338 255.041504 158.456693 251.433071 158.456693 
C 247.824638 158.456693 244.363512 159.890338 241.811964 162.441886 
C 239.260417 164.993433 237.826772 168.454559 237.826772 172.062992 
C 237.826772 175.671425 239.260417 179.132551 241.811964 181.684099 
C 244.363512 184.235646 247.824638 185.669291 251.433071 185.669291 
z
" clip-path="url(#p461200aa3e)" style="fill: #fff0cc; stroke: #e69f00; stroke-width: 0.5; stroke-linejoin: miter"/>
   </g>
   <g id="text_9">
    <text style="fill: #e69f00; font: 700 6.5px 'DejaVu Sans'; text-anchor: middle" x="251.433071" y="173.856586" transform="rotate(-0 251.433071 173.856586)">0.800</text>
   </g>
   <g id="text_10">
    <text style="fill: #333333; font: 700 6.5px 'DejaVu Sans'; text-anchor: middle" x="330.80315" y="98.738476" transform="rotate(-0 330.80315 98.738476)">CTQW v4</text>
   </g>
   <g id="text_11">
    <text style="fill: #333333; font: 5.5px 'DejaVu Sans'; text-anchor: middle" x="330.80315" y="112.635766" transform="rotate(-0 330.80315 112.635766)">Per-protein γ</text>
   </g>
   <g id="patch_16">
    <path d="M 330.80315 185.669291 
C 334.411582 185.669291 337.872709 184.235646 340.424256 181.684099 
C 342.975803 179.132551 344.409449 175.671425 344.409449 172.062992 
C 344.409449 168.454559 342.975803 164.993433 340.424256 162.441886 
C 337.872709 159.890338 334.411582 158.456693 330.80315 158.456693 
C 327.194717 158.456693 323.73359 159.890338 321.182043 162.441886 
C 318.630496 164.993433 317.19685 168.454559 317.19685 172.062992 
C 317.19685 175.671425 318.630496 179.132551 321.182043 181.684099 
C 323.73359 184.235646 327.194717 185.669291 330.80315 185.669291 
z
" clip-path="url(#p461200aa3e)" style="fill: #fff0cc; stroke: #e69f00; stroke-width: 0.5; stroke-linejoin: miter"/>
   </g>
   <g id="text_12">
    <text style="fill: #e69f00; font: 700 6.5px 'DejaVu Sans'; text-anchor: middle" x="330.80315" y="173.856586" transform="rotate(-0 330.80315 173.856586)">0.800</text>
   </g>
   <g id="text_13">
    <text style="fill: #333333; font: 700 6.5px 'DejaVu Sans'; text-anchor: middle" x="410.173228" y="98.713085" transform="rotate(-0 410.173228 98.713085)">Hybrid</text>
   </g>
   <g id="text_14">
    <text style="fill: #333333; font: 5.5px 'DejaVu Sans'; text-anchor: middle" x="410.173228" y="112.635766" transform="rotate(-0 410.173228 112.635766)">BCE+CTQW</text>
   </g>
   <g id="patch_17">
    <path d="M 410.173228 185.669291 
C 413.781661 185.669291 417.242788 184.235646 419.794335 181.684099 
C 422.345882 179.132551 423.779528 175.671425 423.779528 172.062992 
C 423.779528 168.454559 422.345882 164.993433 419.794335 162.441886 
C 417.242788 159.890338 413.781661 158.456693 410.173228 158.456693 
C 406.564796 158.456693 403.103669 159.890338 400.552122 162.441886 
C 398.000575 164.993433 396.566929 168.454559 396.566929 172.062992 
C 396.566929 175.671425 398.000575 179.132551 400.552122 181.684099 
C 403.103669 184.235646 406.564796 185.669291 410.173228 185.669291 
z
" clip-path="url(#p461200aa3e)" style="fill: #f5e3ee; stroke: #cc79a7; stroke-width: 0.5; stroke-linejoin: miter"/>
   </g>
   <g id="text_15">
    <text style="fill: #cc79a7; font: 700 6.5px 'DejaVu Sans'; text-anchor: middle" x="410.173228" y="173.856586" transform="rotate(-0 410.173228 173.856586)">0.867</text>
   </g>
   <g id="text_16">
    <text style="fill: #333333; font: 700 6.5px 'DejaVu Sans'; text-anchor: middle" x="489.543307" y="98.738476" transform="rotate(-0 489.543307 98.738476)">Baseline</text>
   </g>
   <g id="text_17">
    <text style="fill: #333333; font: 5.5px 'DejaVu Sans'; text-anchor: middle" x="489.543307" y="112.635766" transform="rotate(-0 489.543307 112.635766)">BCE only</text>
   </g>
   <g id="patch_18">
    <path d="M 489.543307 185.669291 
C 493.15174 185.669291 496.612866 184.235646 499.164414 181.684099 
C 501.715961 179.132551 503.149606 175.671425 503.149606 172.062992 
C 503.149606 168.454559 501.715961 164.993433 499.164414 162.441886 
C 496.612866 159.890338 493.15174 158.456693 489.543307 158.456693 
C 485.934874 158.456693 482.473748 159.890338 479.922201 162.441886 
C 477.370653 164.993433 475.937008 168.454559 475.937008 172.062992 
C 475.937008 175.671425 477.370653 179.132551 479.922201 181.684099 
C 482.473748 184.235646 485.934874 185.669291 489.543307 185.669291 
z
" clip-path="url(#p461200aa3e)" style="fill: #d1efe7; stroke: #009e73; stroke-width: 0.5; stroke-linejoin: miter"/>
   </g>
   <g id="text_18">
    <text style="fill: #009e73; font: 700 6.5px 'DejaVu Sans'; text-anchor: middle" x="489.543307" y="173.856586" transform="rotate(-0 489.543307 173.856586)">0.933</text>
   </g>
  </g>
 </g>
 <defs>
  <clipPath id="p461200aa3e">
   <rect x="36" y="36" width="510.23622" height="192.755906"/>
  </clipPath>
 </defs>
</svg>
